<svg xmlns="http://www.w3.org/2000/svg" xmlns:xlink="http://www.w3.org/1999/xlink" width="500" zoomAndPan="magnify" viewBox="0 0 375 374.999991" height="500" preserveAspectRatio="xMidYMid meet" version="1.0"><defs><clipPath id="afa0731cd3"><path d="M 35 35 L 340 35 L 340 340 L 35 340 Z M 35 35 " clip-rule="nonzero"/></clipPath><clipPath id="91dac426df"><path d="M 339.351562 187.582031 C 339.351562 190.066406 339.292969 192.546875 339.171875 195.03125 C 339.046875 197.511719 338.867188 199.988281 338.621094 202.457031 C 338.378906 204.929688 338.074219 207.394531 337.710938 209.851562 C 337.347656 212.308594 336.921875 214.753906 336.4375 217.191406 C 335.953125 219.628906 335.40625 222.050781 334.804688 224.460938 C 334.199219 226.871094 333.539062 229.261719 332.816406 231.640625 C 332.097656 234.015625 331.316406 236.375 330.480469 238.710938 C 329.644531 241.050781 328.75 243.367188 327.800781 245.664062 C 326.847656 247.957031 325.84375 250.226562 324.78125 252.472656 C 323.71875 254.71875 322.601562 256.9375 321.433594 259.125 C 320.261719 261.316406 319.039062 263.476562 317.761719 265.609375 C 316.484375 267.738281 315.15625 269.835938 313.773438 271.902344 C 312.394531 273.96875 310.964844 275.996094 309.484375 277.992188 C 308.007812 279.988281 306.476562 281.945312 304.902344 283.863281 C 303.328125 285.785156 301.703125 287.664062 300.035156 289.503906 C 298.367188 291.347656 296.65625 293.144531 294.902344 294.902344 C 293.144531 296.65625 291.347656 298.367188 289.503906 300.035156 C 287.664062 301.703125 285.785156 303.328125 283.863281 304.902344 C 281.945312 306.476562 279.988281 308.007812 277.992188 309.484375 C 275.996094 310.964844 273.96875 312.394531 271.902344 313.773438 C 269.835938 315.15625 267.738281 316.484375 265.609375 317.761719 C 263.476562 319.039062 261.316406 320.261719 259.125 321.433594 C 256.9375 322.601562 254.71875 323.71875 252.472656 324.78125 C 250.226562 325.84375 247.957031 326.847656 245.664062 327.800781 C 243.367188 328.75 241.050781 329.644531 238.710938 330.480469 C 236.375 331.316406 234.015625 332.097656 231.640625 332.816406 C 229.261719 333.539062 226.871094 334.199219 224.460938 334.804688 C 222.050781 335.40625 219.628906 335.953125 217.191406 336.4375 C 214.753906 336.921875 212.308594 337.347656 209.851562 337.710938 C 207.394531 338.074219 204.929688 338.378906 202.457031 338.621094 C 199.988281 338.867188 197.511719 339.046875 195.03125 339.171875 C 192.546875 339.292969 190.066406 339.351562 187.582031 339.351562 C 185.097656 339.351562 182.617188 339.292969 180.136719 339.171875 C 177.65625 339.046875 175.179688 338.867188 172.707031 338.621094 C 170.234375 338.378906 167.769531 338.074219 165.3125 337.710938 C 162.855469 337.347656 160.410156 336.921875 157.972656 336.4375 C 155.539062 335.953125 153.113281 335.40625 150.707031 334.804688 C 148.296875 334.199219 145.902344 333.539062 143.527344 332.816406 C 141.148438 332.097656 138.792969 331.316406 136.453125 330.480469 C 134.113281 329.644531 131.796875 328.75 129.503906 327.800781 C 127.207031 326.847656 124.9375 325.84375 122.691406 324.78125 C 120.445312 323.71875 118.230469 322.601562 116.039062 321.433594 C 113.847656 320.261719 111.6875 319.039062 109.558594 317.761719 C 107.425781 316.484375 105.328125 315.15625 103.261719 313.773438 C 101.199219 312.394531 99.167969 310.964844 97.171875 309.484375 C 95.179688 308.007812 93.21875 306.476562 91.300781 304.902344 C 89.378906 303.328125 87.5 301.703125 85.660156 300.035156 C 83.820312 298.367188 82.019531 296.65625 80.265625 294.902344 C 78.507812 293.144531 76.796875 291.347656 75.128906 289.503906 C 73.460938 287.664062 71.839844 285.785156 70.261719 283.863281 C 68.6875 281.945312 67.160156 279.988281 65.679688 277.992188 C 64.199219 275.996094 62.769531 273.96875 61.390625 271.902344 C 60.011719 269.835938 58.683594 267.738281 57.40625 265.609375 C 56.128906 263.476562 54.902344 261.316406 53.734375 259.125 C 52.5625 256.9375 51.445312 254.71875 50.382812 252.472656 C 49.320312 250.226562 48.316406 247.957031 47.363281 245.664062 C 46.414062 243.367188 45.519531 241.050781 44.683594 238.710938 C 43.847656 236.375 43.070312 234.015625 42.347656 231.640625 C 41.625 229.261719 40.964844 226.871094 40.359375 224.460938 C 39.757812 222.050781 39.214844 219.628906 38.730469 217.191406 C 38.242188 214.753906 37.820312 212.308594 37.453125 209.851562 C 37.089844 207.394531 36.785156 204.929688 36.542969 202.457031 C 36.300781 199.988281 36.117188 197.511719 35.996094 195.03125 C 35.875 192.546875 35.8125 190.066406 35.8125 187.582031 C 35.8125 185.097656 35.875 182.617188 35.996094 180.136719 C 36.117188 177.65625 36.300781 175.179688 36.542969 172.707031 C 36.785156 170.234375 37.089844 167.769531 37.453125 165.3125 C 37.820312 162.855469 38.242188 160.410156 38.730469 157.972656 C 39.214844 155.539062 39.757812 153.113281 40.359375 150.707031 C 40.964844 148.296875 41.625 145.902344 42.347656 143.527344 C 43.070312 141.148438 43.847656 138.792969 44.683594 136.453125 C 45.519531 134.113281 46.414062 131.796875 47.363281 129.503906 C 48.316406 127.207031 49.320312 124.9375 50.382812 122.691406 C 51.445312 120.445312 52.5625 118.230469 53.734375 116.039062 C 54.902344 113.847656 56.128906 111.6875 57.40625 109.558594 C 58.683594 107.425781 60.011719 105.328125 61.390625 103.261719 C 62.769531 101.199219 64.199219 99.167969 65.679688 97.171875 C 67.160156 95.179688 68.6875 93.21875 70.261719 91.300781 C 71.839844 89.378906 73.460938 87.5 75.128906 85.660156 C 76.796875 83.820312 78.507812 82.019531 80.265625 80.265625 C 82.019531 78.507812 83.820312 76.796875 85.660156 75.128906 C 87.5 73.460938 89.378906 71.839844 91.300781 70.261719 C 93.21875 68.6875 95.179688 67.160156 97.171875 65.679688 C 99.167969 64.199219 101.199219 62.769531 103.261719 61.390625 C 105.328125 60.011719 107.425781 58.683594 109.558594 57.40625 C 111.6875 56.128906 113.847656 54.902344 116.039062 53.734375 C 118.230469 52.5625 120.445312 51.445312 122.691406 50.382812 C 124.9375 49.320312 127.207031 48.316406 129.503906 47.363281 C 131.796875 46.414062 134.113281 45.519531 136.453125 44.683594 C 138.792969 43.847656 141.148438 43.070312 143.527344 42.347656 C 145.902344 41.625 148.296875 40.964844 150.707031 40.359375 C 153.113281 39.757812 155.539062 39.214844 157.972656 38.730469 C 160.410156 38.242188 162.855469 37.820312 165.3125 37.453125 C 167.769531 37.089844 170.234375 36.785156 172.707031 36.542969 C 175.179688 36.300781 177.65625 36.117188 180.136719 35.996094 C 182.617188 35.875 185.097656 35.8125 187.582031 35.8125 C 190.066406 35.8125 192.546875 35.875 195.03125 35.996094 C 197.511719 36.117188 199.988281 36.300781 202.457031 36.542969 C 204.929688 36.785156 207.394531 37.089844 209.851562 37.453125 C 212.308594 37.820312 214.753906 38.242188 217.191406 38.730469 C 219.628906 39.214844 222.050781 39.757812 224.460938 40.359375 C 226.871094 40.964844 229.261719 41.625 231.640625 42.347656 C 234.015625 43.070312 236.375 43.847656 238.710938 44.683594 C 241.050781 45.519531 243.367188 46.414062 245.664062 47.363281 C 247.957031 48.316406 250.226562 49.320312 252.472656 50.382812 C 254.71875 51.445312 256.9375 52.5625 259.125 53.734375 C 261.316406 54.902344 263.476562 56.128906 265.609375 57.40625 C 267.738281 58.683594 269.835938 60.011719 271.902344 61.390625 C 273.96875 62.769531 275.996094 64.199219 277.992188 65.679688 C 279.988281 67.160156 281.945312 68.6875 283.863281 70.261719 C 285.785156 71.839844 287.664062 73.460938 289.503906 75.128906 C 291.347656 76.796875 293.144531 78.507812 294.902344 80.265625 C 296.65625 82.019531 298.367188 83.820312 300.035156 85.660156 C 301.703125 87.5 303.328125 89.378906 304.902344 91.300781 C 306.476562 93.21875 308.007812 95.179688 309.484375 97.171875 C 310.964844 99.167969 312.394531 101.199219 313.773438 103.261719 C 315.15625 105.328125 316.484375 107.425781 317.761719 109.558594 C 319.039062 111.6875 320.261719 113.847656 321.433594 116.039062 C 322.601562 118.230469 323.71875 120.445312 324.78125 122.691406 C 325.84375 124.9375 326.847656 127.207031 327.800781 129.503906 C 328.75 131.796875 329.644531 134.113281 330.480469 136.453125 C 331.316406 138.792969 332.097656 141.148438 332.816406 143.527344 C 333.539062 145.902344 334.199219 148.296875 334.804688 150.707031 C 335.40625 153.113281 335.953125 155.539062 336.4375 157.972656 C 336.921875 160.410156 337.347656 162.855469 337.710938 165.3125 C 338.074219 167.769531 338.378906 170.234375 338.621094 172.707031 C 338.867188 175.179688 339.046875 177.65625 339.171875 180.136719 C 339.292969 182.617188 339.351562 185.097656 339.351562 187.582031 Z M 339.351562 187.582031 " clip-rule="nonzero"/></clipPath><linearGradient x1="48.842114" gradientTransform="matrix(0.6105, 0, 0, 0.6105, 34.95768, 34.957669)" y1="-32.394395" x2="451.157641" gradientUnits="userSpaceOnUse" y2="532.394595" id="4a79a2491b"><stop stop-opacity="1" stop-color="rgb(3.49884%, 56.098938%, 57.998657%)" offset="0"/><stop stop-opacity="1" stop-color="rgb(3.49884%, 56.098938%, 57.998657%)" offset="0.03125"/><stop stop-opacity="1" stop-color="rgb(3.49884%, 56.098938%, 57.998657%)" offset="0.046875"/><stop stop-opacity="1" stop-color="rgb(3.569031%, 56.150818%, 58.044434%)" offset="0.0546875"/><stop stop-opacity="1" stop-color="rgb(3.901672%, 56.39801%, 58.261108%)" offset="0.0585938"/><stop stop-opacity="1" stop-color="rgb(4.162598%, 56.591797%, 58.430481%)" offset="0.0625"/><stop stop-opacity="1" stop-color="rgb(4.423523%, 56.785583%, 58.599854%)" offset="0.0664062"/><stop stop-opacity="1" stop-color="rgb(4.684448%, 56.97937%, 58.770752%)" offset="0.0703125"/><stop stop-opacity="1" stop-color="rgb(4.945374%, 57.171631%, 58.940125%)" offset="0.0742188"/><stop stop-opacity="1" stop-color="rgb(5.207825%, 57.365417%, 59.109497%)" offset="0.078125"/><stop stop-opacity="1" stop-color="rgb(5.46875%, 57.559204%, 59.27887%)" offset="0.0820312"/><stop stop-opacity="1" stop-color="rgb(5.729675%, 57.752991%, 59.449768%)" offset="0.0859375"/><stop stop-opacity="1" stop-color="rgb(5.990601%, 57.946777%, 59.619141%)" offset="0.0898438"/><stop stop-opacity="1" stop-color="rgb(6.253052%, 58.140564%, 59.790039%)" offset="0.09375"/><stop stop-opacity="1" stop-color="rgb(6.513977%, 58.334351%, 59.959412%)" offset="0.0976562"/><stop stop-opacity="1" stop-color="rgb(6.774902%, 58.528137%, 60.128784%)" offset="0.101563"/><stop stop-opacity="1" stop-color="rgb(7.035828%, 58.721924%, 60.298157%)" offset="0.105469"/><stop stop-opacity="1" stop-color="rgb(7.296753%, 58.91571%, 60.469055%)" offset="0.109375"/><stop stop-opacity="1" stop-color="rgb(7.557678%, 59.109497%, 60.638428%)" offset="0.113281"/><stop stop-opacity="1" stop-color="rgb(7.820129%, 59.303284%, 60.809326%)" offset="0.117188"/><stop stop-opacity="1" stop-color="rgb(8.081055%, 59.49707%, 60.978699%)" offset="0.121094"/><stop stop-opacity="1" stop-color="rgb(8.34198%, 59.690857%, 61.148071%)" offset="0.125"/><stop stop-opacity="1" stop-color="rgb(8.602905%, 59.884644%, 61.317444%)" offset="0.128906"/><stop stop-opacity="1" stop-color="rgb(8.863831%, 60.07843%, 61.488342%)" offset="0.132812"/><stop stop-opacity="1" stop-color="rgb(9.124756%, 60.270691%, 61.657715%)" offset="0.136719"/><stop stop-opacity="1" stop-color="rgb(9.387207%, 60.464478%, 61.828613%)" offset="0.140625"/><stop stop-opacity="1" stop-color="rgb(9.648132%, 60.658264%, 61.997986%)" offset="0.144531"/><stop stop-opacity="1" stop-color="rgb(9.909058%, 60.852051%, 62.167358%)" offset="0.148438"/><stop stop-opacity="1" stop-color="rgb(10.169983%, 61.045837%, 62.336731%)" offset="0.152344"/><stop stop-opacity="1" stop-color="rgb(10.430908%, 61.239624%, 62.507629%)" offset="0.15625"/><stop stop-opacity="1" stop-color="rgb(10.691833%, 61.433411%, 62.677002%)" offset="0.160156"/><stop stop-opacity="1" stop-color="rgb(10.954285%, 61.627197%, 62.8479%)" offset="0.164062"/><stop stop-opacity="1" stop-color="rgb(11.21521%, 61.820984%, 63.017273%)" offset="0.167969"/><stop stop-opacity="1" stop-color="rgb(11.476135%, 62.014771%, 63.186646%)" offset="0.171875"/><stop stop-opacity="1" stop-color="rgb(11.737061%, 62.208557%, 63.356018%)" offset="0.175781"/><stop stop-opacity="1" stop-color="rgb(11.999512%, 62.402344%, 63.526917%)" offset="0.179688"/><stop stop-opacity="1" stop-color="rgb(12.260437%, 62.59613%, 63.696289%)" offset="0.183594"/><stop stop-opacity="1" stop-color="rgb(12.521362%, 62.789917%, 63.867188%)" offset="0.1875"/><stop stop-opacity="1" stop-color="rgb(12.782288%, 62.983704%, 64.03656%)" offset="0.191406"/><stop stop-opacity="1" stop-color="rgb(13.043213%, 63.17749%, 64.205933%)" offset="0.195312"/><stop stop-opacity="1" stop-color="rgb(13.304138%, 63.371277%, 64.375305%)" offset="0.199219"/><stop stop-opacity="1" stop-color="rgb(13.566589%, 63.565063%, 64.546204%)" offset="0.203125"/><stop stop-opacity="1" stop-color="rgb(13.827515%, 63.757324%, 64.715576%)" offset="0.207031"/><stop stop-opacity="1" stop-color="rgb(14.08844%, 63.951111%, 64.886475%)" offset="0.210938"/><stop stop-opacity="1" stop-color="rgb(14.349365%, 64.144897%, 65.055847%)" offset="0.214844"/><stop stop-opacity="1" stop-color="rgb(14.610291%, 64.338684%, 65.22522%)" offset="0.21875"/><stop stop-opacity="1" stop-color="rgb(14.871216%, 64.532471%, 65.394592%)" offset="0.222656"/><stop stop-opacity="1" stop-color="rgb(15.133667%, 64.726257%, 65.565491%)" offset="0.226562"/><stop stop-opacity="1" stop-color="rgb(15.394592%, 64.920044%, 65.734863%)" offset="0.230469"/><stop stop-opacity="1" stop-color="rgb(15.655518%, 65.113831%, 65.905762%)" offset="0.234375"/><stop stop-opacity="1" stop-color="rgb(15.916443%, 65.307617%, 66.075134%)" offset="0.238281"/><stop stop-opacity="1" stop-color="rgb(16.178894%, 65.501404%, 66.244507%)" offset="0.242188"/><stop stop-opacity="1" stop-color="rgb(16.439819%, 65.69519%, 66.413879%)" offset="0.246094"/><stop stop-opacity="1" stop-color="rgb(16.700745%, 65.888977%, 66.584778%)" offset="0.25"/><stop stop-opacity="1" stop-color="rgb(16.96167%, 66.082764%, 66.75415%)" offset="0.253906"/><stop stop-opacity="1" stop-color="rgb(17.222595%, 66.27655%, 66.925049%)" offset="0.257812"/><stop stop-opacity="1" stop-color="rgb(17.483521%, 66.470337%, 67.094421%)" offset="0.261719"/><stop stop-opacity="1" stop-color="rgb(17.745972%, 66.664124%, 67.263794%)" offset="0.265625"/><stop stop-opacity="1" stop-color="rgb(18.006897%, 66.856384%, 67.433167%)" offset="0.269531"/><stop stop-opacity="1" stop-color="rgb(18.267822%, 67.050171%, 67.604065%)" offset="0.273438"/><stop stop-opacity="1" stop-color="rgb(18.528748%, 67.243958%, 67.773438%)" offset="0.277344"/><stop stop-opacity="1" stop-color="rgb(18.789673%, 67.437744%, 67.94281%)" offset="0.28125"/><stop stop-opacity="1" stop-color="rgb(19.050598%, 67.631531%, 68.112183%)" offset="0.285156"/><stop stop-opacity="1" stop-color="rgb(19.313049%, 67.825317%, 68.283081%)" offset="0.289062"/><stop stop-opacity="1" stop-color="rgb(19.573975%, 68.019104%, 68.452454%)" offset="0.292969"/><stop stop-opacity="1" stop-color="rgb(19.8349%, 68.212891%, 68.623352%)" offset="0.296875"/><stop stop-opacity="1" stop-color="rgb(20.095825%, 68.406677%, 68.792725%)" offset="0.300781"/><stop stop-opacity="1" stop-color="rgb(20.35675%, 68.600464%, 68.962097%)" offset="0.304688"/><stop stop-opacity="1" stop-color="rgb(20.617676%, 68.79425%, 69.13147%)" offset="0.308594"/><stop stop-opacity="1" stop-color="rgb(20.880127%, 68.988037%, 69.302368%)" offset="0.3125"/><stop stop-opacity="1" stop-color="rgb(21.141052%, 69.181824%, 69.471741%)" offset="0.316406"/><stop stop-opacity="1" stop-color="rgb(21.401978%, 69.37561%, 69.642639%)" offset="0.320313"/><stop stop-opacity="1" stop-color="rgb(21.662903%, 69.569397%, 69.812012%)" offset="0.324219"/><stop stop-opacity="1" stop-color="rgb(21.925354%, 69.763184%, 69.981384%)" offset="0.328125"/><stop stop-opacity="1" stop-color="rgb(22.186279%, 69.95697%, 70.150757%)" offset="0.332031"/><stop stop-opacity="1" stop-color="rgb(22.447205%, 70.150757%, 70.321655%)" offset="0.335938"/><stop stop-opacity="1" stop-color="rgb(22.70813%, 70.343018%, 70.491028%)" offset="0.339844"/><stop stop-opacity="1" stop-color="rgb(22.969055%, 70.536804%, 70.661926%)" offset="0.34375"/><stop stop-opacity="1" stop-color="rgb(23.22998%, 70.730591%, 70.831299%)" offset="0.347656"/><stop stop-opacity="1" stop-color="rgb(23.492432%, 70.924377%, 71.000671%)" offset="0.351562"/><stop stop-opacity="1" stop-color="rgb(23.753357%, 71.118164%, 71.170044%)" offset="0.355469"/><stop stop-opacity="1" stop-color="rgb(24.014282%, 71.311951%, 71.340942%)" offset="0.359375"/><stop stop-opacity="1" stop-color="rgb(24.275208%, 71.505737%, 71.510315%)" offset="0.363281"/><stop stop-opacity="1" stop-color="rgb(24.536133%, 71.699524%, 71.681213%)" offset="0.367188"/><stop stop-opacity="1" stop-color="rgb(24.797058%, 71.893311%, 71.850586%)" offset="0.371094"/><stop stop-opacity="1" stop-color="rgb(25.059509%, 72.087097%, 72.019958%)" offset="0.375"/><stop stop-opacity="1" stop-color="rgb(25.320435%, 72.280884%, 72.189331%)" offset="0.378906"/><stop stop-opacity="1" stop-color="rgb(25.58136%, 72.47467%, 72.360229%)" offset="0.382813"/><stop stop-opacity="1" stop-color="rgb(25.842285%, 72.668457%, 72.529602%)" offset="0.386719"/><stop stop-opacity="1" stop-color="rgb(26.10321%, 72.862244%, 72.7005%)" offset="0.390625"/><stop stop-opacity="1" stop-color="rgb(26.364136%, 73.05603%, 72.869873%)" offset="0.394531"/><stop stop-opacity="1" stop-color="rgb(26.626587%, 73.249817%, 73.039246%)" offset="0.398438"/><stop stop-opacity="1" stop-color="rgb(26.887512%, 73.443604%, 73.208618%)" offset="0.402344"/><stop stop-opacity="1" stop-color="rgb(27.148438%, 73.63739%, 73.379517%)" offset="0.40625"/><stop stop-opacity="1" stop-color="rgb(27.409363%, 73.829651%, 73.548889%)" offset="0.410156"/><stop stop-opacity="1" stop-color="rgb(27.671814%, 74.023438%, 73.719788%)" offset="0.414062"/><stop stop-opacity="1" stop-color="rgb(27.932739%, 74.217224%, 73.88916%)" offset="0.417969"/><stop stop-opacity="1" stop-color="rgb(28.193665%, 74.411011%, 74.058533%)" offset="0.421875"/><stop stop-opacity="1" stop-color="rgb(28.45459%, 74.604797%, 74.227905%)" offset="0.425781"/><stop stop-opacity="1" stop-color="rgb(28.715515%, 74.798584%, 74.398804%)" offset="0.429688"/><stop stop-opacity="1" stop-color="rgb(28.97644%, 74.992371%, 74.568176%)" offset="0.433594"/><stop stop-opacity="1" stop-color="rgb(29.238892%, 75.186157%, 74.739075%)" offset="0.4375"/><stop stop-opacity="1" stop-color="rgb(29.499817%, 75.379944%, 74.908447%)" offset="0.441406"/><stop stop-opacity="1" stop-color="rgb(29.760742%, 75.57373%, 75.07782%)" offset="0.445312"/><stop stop-opacity="1" stop-color="rgb(30.021667%, 75.767517%, 75.247192%)" offset="0.449219"/><stop stop-opacity="1" stop-color="rgb(30.282593%, 75.961304%, 75.418091%)" offset="0.453125"/><stop stop-opacity="1" stop-color="rgb(30.543518%, 76.15509%, 75.587463%)" offset="0.457031"/><stop stop-opacity="1" stop-color="rgb(30.805969%, 76.348877%, 75.758362%)" offset="0.460938"/><stop stop-opacity="1" stop-color="rgb(31.066895%, 76.542664%, 75.927734%)" offset="0.464844"/><stop stop-opacity="1" stop-color="rgb(31.32782%, 76.73645%, 76.097107%)" offset="0.46875"/><stop stop-opacity="1" stop-color="rgb(31.588745%, 76.928711%, 76.266479%)" offset="0.472656"/><stop stop-opacity="1" stop-color="rgb(31.851196%, 77.122498%, 76.437378%)" offset="0.476562"/><stop stop-opacity="1" stop-color="rgb(32.112122%, 77.316284%, 76.60675%)" offset="0.480469"/><stop stop-opacity="1" stop-color="rgb(32.373047%, 77.510071%, 76.776123%)" offset="0.484375"/><stop stop-opacity="1" stop-color="rgb(32.633972%, 77.703857%, 76.945496%)" offset="0.488281"/><stop stop-opacity="1" stop-color="rgb(32.894897%, 77.897644%, 77.116394%)" offset="0.492188"/><stop stop-opacity="1" stop-color="rgb(33.155823%, 78.091431%, 77.285767%)" offset="0.496094"/><stop stop-opacity="1" stop-color="rgb(33.418274%, 78.285217%, 77.456665%)" offset="0.5"/><stop stop-opacity="1" stop-color="rgb(33.679199%, 78.479004%, 77.626038%)" offset="0.503906"/><stop stop-opacity="1" stop-color="rgb(33.940125%, 78.672791%, 77.79541%)" offset="0.507812"/><stop stop-opacity="1" stop-color="rgb(34.20105%, 78.866577%, 77.964783%)" offset="0.511719"/><stop stop-opacity="1" stop-color="rgb(34.461975%, 79.060364%, 78.135681%)" offset="0.515625"/><stop stop-opacity="1" stop-color="rgb(34.7229%, 79.25415%, 78.305054%)" offset="0.519531"/><stop stop-opacity="1" stop-color="rgb(34.985352%, 79.447937%, 78.475952%)" offset="0.523438"/><stop stop-opacity="1" stop-color="rgb(35.246277%, 79.641724%, 78.645325%)" offset="0.527344"/><stop stop-opacity="1" stop-color="rgb(35.507202%, 79.83551%, 78.814697%)" offset="0.53125"/><stop stop-opacity="1" stop-color="rgb(35.768127%, 80.029297%, 78.98407%)" offset="0.535156"/><stop stop-opacity="1" stop-color="rgb(36.029053%, 80.223083%, 79.154968%)" offset="0.539063"/><stop stop-opacity="1" stop-color="rgb(36.289978%, 80.415344%, 79.324341%)" offset="0.542969"/><stop stop-opacity="1" stop-color="rgb(36.552429%, 80.609131%, 79.495239%)" offset="0.546875"/><stop stop-opacity="1" stop-color="rgb(36.813354%, 80.802917%, 79.664612%)" offset="0.550781"/><stop stop-opacity="1" stop-color="rgb(37.07428%, 80.996704%, 79.833984%)" offset="0.554688"/><stop stop-opacity="1" stop-color="rgb(37.335205%, 81.190491%, 80.003357%)" offset="0.558594"/><stop stop-opacity="1" stop-color="rgb(37.597656%, 81.384277%, 80.174255%)" offset="0.5625"/><stop stop-opacity="1" stop-color="rgb(37.858582%, 81.578064%, 80.343628%)" offset="0.566406"/><stop stop-opacity="1" stop-color="rgb(38.119507%, 81.771851%, 80.514526%)" offset="0.570312"/><stop stop-opacity="1" stop-color="rgb(38.380432%, 81.965637%, 80.683899%)" offset="0.574219"/><stop stop-opacity="1" stop-color="rgb(38.641357%, 82.159424%, 80.853271%)" offset="0.578125"/><stop stop-opacity="1" stop-color="rgb(38.902283%, 82.35321%, 81.022644%)" offset="0.582031"/><stop stop-opacity="1" stop-color="rgb(39.164734%, 82.546997%, 81.193542%)" offset="0.585937"/><stop stop-opacity="1" stop-color="rgb(39.425659%, 82.740784%, 81.362915%)" offset="0.589844"/><stop stop-opacity="1" stop-color="rgb(39.686584%, 82.93457%, 81.533813%)" offset="0.59375"/><stop stop-opacity="1" stop-color="rgb(39.94751%, 83.128357%, 81.703186%)" offset="0.597656"/><stop stop-opacity="1" stop-color="rgb(40.208435%, 83.322144%, 81.872559%)" offset="0.601562"/><stop stop-opacity="1" stop-color="rgb(40.46936%, 83.514404%, 82.041931%)" offset="0.605469"/><stop stop-opacity="1" stop-color="rgb(40.731812%, 83.708191%, 82.21283%)" offset="0.609375"/><stop stop-opacity="1" stop-color="rgb(40.992737%, 83.901978%, 82.382202%)" offset="0.613281"/><stop stop-opacity="1" stop-color="rgb(41.253662%, 84.095764%, 82.553101%)" offset="0.617188"/><stop stop-opacity="1" stop-color="rgb(41.514587%, 84.289551%, 82.722473%)" offset="0.621094"/><stop stop-opacity="1" stop-color="rgb(41.775513%, 84.483337%, 82.891846%)" offset="0.625"/><stop stop-opacity="1" stop-color="rgb(42.036438%, 84.677124%, 83.061218%)" offset="0.628906"/><stop stop-opacity="1" stop-color="rgb(42.298889%, 84.870911%, 83.232117%)" offset="0.632812"/><stop stop-opacity="1" stop-color="rgb(42.559814%, 85.064697%, 83.401489%)" offset="0.636719"/><stop stop-opacity="1" stop-color="rgb(42.82074%, 85.258484%, 83.572388%)" offset="0.640625"/><stop stop-opacity="1" stop-color="rgb(43.081665%, 85.452271%, 83.74176%)" offset="0.644531"/><stop stop-opacity="1" stop-color="rgb(43.344116%, 85.646057%, 83.911133%)" offset="0.648438"/><stop stop-opacity="1" stop-color="rgb(43.605042%, 85.839844%, 84.080505%)" offset="0.652344"/><stop stop-opacity="1" stop-color="rgb(43.865967%, 86.03363%, 84.251404%)" offset="0.65625"/><stop stop-opacity="1" stop-color="rgb(44.126892%, 86.227417%, 84.420776%)" offset="0.660156"/><stop stop-opacity="1" stop-color="rgb(44.387817%, 86.421204%, 84.591675%)" offset="0.664063"/><stop stop-opacity="1" stop-color="rgb(44.648743%, 86.61499%, 84.761047%)" offset="0.667969"/><stop stop-opacity="1" stop-color="rgb(44.911194%, 86.808777%, 84.93042%)" offset="0.671875"/><stop stop-opacity="1" stop-color="rgb(45.172119%, 87.001038%, 85.099792%)" offset="0.675781"/><stop stop-opacity="1" stop-color="rgb(45.433044%, 87.194824%, 85.270691%)" offset="0.679688"/><stop stop-opacity="1" stop-color="rgb(45.69397%, 87.388611%, 85.440063%)" offset="0.683594"/><stop stop-opacity="1" stop-color="rgb(45.954895%, 87.582397%, 85.609436%)" offset="0.6875"/><stop stop-opacity="1" stop-color="rgb(46.21582%, 87.776184%, 85.778809%)" offset="0.691406"/><stop stop-opacity="1" stop-color="rgb(46.478271%, 87.969971%, 85.949707%)" offset="0.695312"/><stop stop-opacity="1" stop-color="rgb(46.739197%, 88.163757%, 86.11908%)" offset="0.699219"/><stop stop-opacity="1" stop-color="rgb(47.000122%, 88.357544%, 86.289978%)" offset="0.703125"/><stop stop-opacity="1" stop-color="rgb(47.261047%, 88.551331%, 86.459351%)" offset="0.707031"/><stop stop-opacity="1" stop-color="rgb(47.523499%, 88.745117%, 86.628723%)" offset="0.710937"/><stop stop-opacity="1" stop-color="rgb(47.784424%, 88.938904%, 86.798096%)" offset="0.714844"/><stop stop-opacity="1" stop-color="rgb(48.045349%, 89.13269%, 86.968994%)" offset="0.71875"/><stop stop-opacity="1" stop-color="rgb(48.306274%, 89.326477%, 87.138367%)" offset="0.722656"/><stop stop-opacity="1" stop-color="rgb(48.5672%, 89.520264%, 87.309265%)" offset="0.726562"/><stop stop-opacity="1" stop-color="rgb(48.828125%, 89.71405%, 87.478638%)" offset="0.730469"/><stop stop-opacity="1" stop-color="rgb(49.090576%, 89.907837%, 87.64801%)" offset="0.734375"/><stop stop-opacity="1" stop-color="rgb(49.351501%, 90.100098%, 87.817383%)" offset="0.738281"/><stop stop-opacity="1" stop-color="rgb(49.612427%, 90.293884%, 87.988281%)" offset="0.742188"/><stop stop-opacity="1" stop-color="rgb(49.873352%, 90.487671%, 88.157654%)" offset="0.746094"/><stop stop-opacity="1" stop-color="rgb(50.134277%, 90.681458%, 88.328552%)" offset="0.75"/><stop stop-opacity="1" stop-color="rgb(50.395203%, 90.875244%, 88.497925%)" offset="0.753906"/><stop stop-opacity="1" stop-color="rgb(50.657654%, 91.069031%, 88.667297%)" offset="0.757812"/><stop stop-opacity="1" stop-color="rgb(50.918579%, 91.262817%, 88.83667%)" offset="0.761719"/><stop stop-opacity="1" stop-color="rgb(51.179504%, 91.456604%, 89.007568%)" offset="0.765625"/><stop stop-opacity="1" stop-color="rgb(51.44043%, 91.650391%, 89.176941%)" offset="0.769531"/><stop stop-opacity="1" stop-color="rgb(51.701355%, 91.844177%, 89.347839%)" offset="0.773438"/><stop stop-opacity="1" stop-color="rgb(51.96228%, 92.037964%, 89.517212%)" offset="0.777344"/><stop stop-opacity="1" stop-color="rgb(52.224731%, 92.23175%, 89.686584%)" offset="0.78125"/><stop stop-opacity="1" stop-color="rgb(52.485657%, 92.425537%, 89.855957%)" offset="0.785156"/><stop stop-opacity="1" stop-color="rgb(52.746582%, 92.619324%, 90.026855%)" offset="0.789063"/><stop stop-opacity="1" stop-color="rgb(53.007507%, 92.81311%, 90.196228%)" offset="0.792969"/><stop stop-opacity="1" stop-color="rgb(53.269958%, 93.006897%, 90.367126%)" offset="0.796875"/><stop stop-opacity="1" stop-color="rgb(53.530884%, 93.200684%, 90.536499%)" offset="0.800781"/><stop stop-opacity="1" stop-color="rgb(53.791809%, 93.39447%, 90.705872%)" offset="0.804688"/><stop stop-opacity="1" stop-color="rgb(54.052734%, 93.586731%, 90.875244%)" offset="0.808594"/><stop stop-opacity="1" stop-color="rgb(54.31366%, 93.780518%, 91.046143%)" offset="0.8125"/><stop stop-opacity="1" stop-color="rgb(54.574585%, 93.974304%, 91.215515%)" offset="0.816406"/><stop stop-opacity="1" stop-color="rgb(54.837036%, 94.168091%, 91.386414%)" offset="0.820312"/><stop stop-opacity="1" stop-color="rgb(55.097961%, 94.361877%, 91.555786%)" offset="0.824219"/><stop stop-opacity="1" stop-color="rgb(55.358887%, 94.555664%, 91.725159%)" offset="0.828125"/><stop stop-opacity="1" stop-color="rgb(55.619812%, 94.749451%, 91.894531%)" offset="0.832031"/><stop stop-opacity="1" stop-color="rgb(55.880737%, 94.943237%, 92.06543%)" offset="0.835937"/><stop stop-opacity="1" stop-color="rgb(56.141663%, 95.137024%, 92.234802%)" offset="0.839844"/><stop stop-opacity="1" stop-color="rgb(56.404114%, 95.330811%, 92.405701%)" offset="0.84375"/><stop stop-opacity="1" stop-color="rgb(56.665039%, 95.524597%, 92.575073%)" offset="0.847656"/><stop stop-opacity="1" stop-color="rgb(56.925964%, 95.718384%, 92.744446%)" offset="0.851562"/><stop stop-opacity="1" stop-color="rgb(57.18689%, 95.91217%, 92.913818%)" offset="0.855469"/><stop stop-opacity="1" stop-color="rgb(57.447815%, 96.105957%, 93.084717%)" offset="0.859375"/><stop stop-opacity="1" stop-color="rgb(57.70874%, 96.299744%, 93.254089%)" offset="0.863281"/><stop stop-opacity="1" stop-color="rgb(57.971191%, 96.49353%, 93.424988%)" offset="0.867188"/><stop stop-opacity="1" stop-color="rgb(58.232117%, 96.687317%, 93.59436%)" offset="0.871094"/><stop stop-opacity="1" stop-color="rgb(58.493042%, 96.881104%, 93.763733%)" offset="0.875"/><stop stop-opacity="1" stop-color="rgb(58.753967%, 97.073364%, 93.933105%)" offset="0.878906"/><stop stop-opacity="1" stop-color="rgb(59.016418%, 97.267151%, 94.104004%)" offset="0.882812"/><stop stop-opacity="1" stop-color="rgb(59.277344%, 97.460938%, 94.273376%)" offset="0.886719"/><stop stop-opacity="1" stop-color="rgb(59.538269%, 97.654724%, 94.442749%)" offset="0.890625"/><stop stop-opacity="1" stop-color="rgb(59.799194%, 97.848511%, 94.612122%)" offset="0.894531"/><stop stop-opacity="1" stop-color="rgb(60.06012%, 98.042297%, 94.78302%)" offset="0.898438"/><stop stop-opacity="1" stop-color="rgb(60.321045%, 98.236084%, 94.952393%)" offset="0.902344"/><stop stop-opacity="1" stop-color="rgb(60.583496%, 98.429871%, 95.123291%)" offset="0.90625"/><stop stop-opacity="1" stop-color="rgb(60.844421%, 98.623657%, 95.292664%)" offset="0.910156"/><stop stop-opacity="1" stop-color="rgb(61.105347%, 98.817444%, 95.462036%)" offset="0.914063"/><stop stop-opacity="1" stop-color="rgb(61.366272%, 99.01123%, 95.631409%)" offset="0.917969"/><stop stop-opacity="1" stop-color="rgb(61.627197%, 99.205017%, 95.802307%)" offset="0.921875"/><stop stop-opacity="1" stop-color="rgb(61.888123%, 99.398804%, 95.97168%)" offset="0.925781"/><stop stop-opacity="1" stop-color="rgb(62.150574%, 99.59259%, 96.142578%)" offset="0.929688"/><stop stop-opacity="1" stop-color="rgb(62.411499%, 99.786377%, 96.311951%)" offset="0.933594"/><stop stop-opacity="1" stop-color="rgb(62.672424%, 99.980164%, 96.481323%)" offset="0.9375"/><stop stop-opacity="1" stop-color="rgb(62.686157%, 99.989319%, 96.490479%)" offset="1"/></linearGradient><clipPath id="e92c2d8e0a"><path d="M 34.957031 34.957031 L 340.207031 34.957031 L 340.207031 340.207031 L 34.957031 340.207031 Z M 34.957031 34.957031 " clip-rule="nonzero"/></clipPath><clipPath id="df6a9a384d"><path d="M 100 88 L 278.175781 88 L 278.175781 290.753906 L 100 290.753906 Z M 100 88 " clip-rule="nonzero"/></clipPath></defs><g clip-path="url(#afa0731cd3)"><g clip-path="url(#91dac426df)"><path fill="url(#4a79a2491b)" d="M 35.8125 35.8125 L 35.8125 339.351562 L 339.351562 339.351562 L 339.351562 35.8125 Z M 35.8125 35.8125 " fill-rule="nonzero"/></g></g><g clip-path="url(#e92c2d8e0a)"><path fill="#098f94" d="M 187.582031 340.207031 C 103.394531 340.207031 34.957031 271.769531 34.957031 187.582031 C 34.957031 103.394531 103.394531 34.957031 187.582031 34.957031 C 271.710938 34.957031 340.207031 103.394531 340.207031 187.582031 C 340.207031 271.769531 271.710938 340.207031 187.582031 340.207031 Z M 187.582031 36.667969 C 104.371094 36.667969 36.667969 104.371094 36.667969 187.582031 C 36.667969 270.792969 104.371094 338.5 187.582031 338.5 C 270.792969 338.5 338.5 270.792969 338.5 187.582031 C 338.5 104.371094 270.792969 36.667969 187.582031 36.667969 Z M 187.582031 36.667969 " fill-opacity="1" fill-rule="nonzero"/></g><g clip-path="url(#df6a9a384d)"><path fill="#ffffff" d="M 264.746094 100.644531 C 256.757812 93.015625 246.054688 88.761719 235.023438 88.800781 C 223.628906 88.84375 212.921875 93.3125 204.863281 101.386719 L 189.496094 116.785156 L 174.511719 101.769531 C 157.820312 85.046875 130.640625 84.523438 113.789062 101.085938 C 96.765625 117.8125 96.664062 145.296875 113.484375 162.144531 L 194.863281 243.691406 C 204.152344 252.996094 204.585938 268.152344 195.480469 277.632812 C 186.160156 287.335938 170.691406 287.449219 161.230469 277.96875 L 141.074219 257.769531 C 140.222656 256.917969 140.136719 255.570312 140.867188 254.609375 C 143.84375 250.6875 145.492188 245.703125 145.121094 240.332031 C 144.394531 229.722656 135.742188 221.195312 125.148438 220.640625 C 112.875 220.003906 102.703125 229.902344 102.867188 242.097656 C 103.015625 253.390625 112.203125 262.714844 123.46875 262.996094 C 127.105469 263.089844 130.539062 262.257812 133.5625 260.722656 C 134.480469 260.253906 135.59375 260.453125 136.316406 261.179688 L 157.144531 282.050781 C 162.945312 287.863281 170.5625 290.765625 178.179688 290.765625 C 185.796875 290.765625 193.417969 287.859375 199.214844 282.050781 C 210.816406 270.429688 210.816406 251.515625 199.214844 239.894531 L 117.5625 158.0625 C 103.09375 143.5625 103.09375 119.972656 117.5625 105.472656 C 132.035156 90.972656 155.582031 90.972656 170.046875 105.472656 L 187.382812 122.839844 C 187.964844 123.421875 188.730469 123.699219 189.496094 123.679688 C 190.257812 123.699219 191.027344 123.421875 191.609375 122.839844 L 208.597656 105.820312 C 215.640625 98.757812 225.152344 94.601562 235.113281 94.582031 C 245.054688 94.5625 254.40625 98.429688 261.433594 105.472656 C 268.453125 112.511719 272.316406 121.867188 272.300781 131.824219 C 272.285156 141.8125 268.132812 151.351562 261.085938 158.414062 L 255.597656 163.917969 C 255.144531 164.367188 254.53125 164.625 253.890625 164.625 L 237.523438 164.625 C 236.617188 164.625 235.78125 164.109375 235.375 163.296875 L 227.472656 147.453125 C 226.585938 145.675781 224.0625 145.675781 223.175781 147.453125 L 209.589844 174.65625 C 208.707031 176.433594 206.179688 176.433594 205.296875 174.65625 L 200.65625 165.355469 C 199.773438 163.578125 197.246094 163.578125 196.363281 165.355469 L 191.722656 174.652344 C 190.839844 176.429688 188.3125 176.429688 187.429688 174.652344 L 173.851562 147.441406 C 172.96875 145.667969 170.441406 145.667969 169.558594 147.441406 L 161.652344 163.285156 C 161.246094 164.097656 160.414062 164.613281 159.507812 164.613281 L 145.019531 164.613281 C 143.441406 164.613281 142.066406 165.832031 142.019531 167.414062 C 141.972656 169.050781 143.277344 170.390625 144.902344 170.390625 L 163.070312 170.390625 C 163.976562 170.390625 164.8125 169.875 165.21875 169.0625 L 169.558594 160.355469 C 170.441406 158.578125 172.96875 158.578125 173.851562 160.355469 L 187.429688 187.566406 C 188.3125 189.339844 190.839844 189.339844 191.722656 187.566406 L 196.363281 178.265625 C 197.246094 176.492188 199.773438 176.492188 200.65625 178.265625 L 205.296875 187.570312 C 206.179688 189.347656 208.707031 189.347656 209.589844 187.570312 L 223.167969 160.359375 C 224.050781 158.589844 226.578125 158.582031 227.460938 160.359375 L 231.808594 169.066406 C 232.214844 169.878906 233.046875 170.394531 233.957031 170.394531 L 256.074219 170.394531 C 256.074219 170.394531 256.074219 170.394531 256.078125 170.394531 L 256.082031 170.394531 C 256.261719 170.394531 256.433594 170.375 256.601562 170.347656 C 256.609375 170.347656 256.625 170.339844 256.632812 170.339844 C 256.800781 170.308594 256.96875 170.257812 257.128906 170.195312 C 257.144531 170.191406 257.15625 170.1875 257.171875 170.183594 C 257.332031 170.113281 257.484375 170.03125 257.628906 169.941406 C 257.644531 169.933594 257.65625 169.925781 257.671875 169.917969 C 257.824219 169.8125 257.96875 169.695312 258.105469 169.566406 C 258.109375 169.5625 258.109375 169.5625 258.113281 169.554688 L 265.085938 162.570312 C 273.339844 154.300781 278.15625 143.101562 278.066406 131.40625 C 277.96875 119.710938 273.238281 108.753906 264.746094 100.644531 Z M 108.628906 241.808594 C 108.628906 233.304688 115.535156 226.386719 124.019531 226.386719 C 132.5 226.386719 139.40625 233.308594 139.40625 241.808594 C 139.40625 250.3125 132.5 257.226562 124.019531 257.226562 C 115.535156 257.226562 108.628906 250.3125 108.628906 241.808594 Z M 108.628906 241.808594 " fill-opacity="1" fill-rule="nonzero"/></g></svg>