<svg xmlns="http://www.w3.org/2000/svg" xmlns:xlink="http://www.w3.org/1999/xlink" width="500" zoomAndPan="magnify" viewBox="0 0 375 374.999991" height="500" preserveAspectRatio="xMidYMid meet" version="1.0"><defs><clipPath id="769a5719a4"><path d="M 35 35 L 340 35 L 340 340 L 35 340 Z M 35 35 " clip-rule="nonzero"/></clipPath><clipPath id="6039d3cfa6"><path d="M 339.351562 187.582031 C 339.351562 190.066406 339.292969 192.546875 339.171875 195.03125 C 339.046875 197.511719 338.867188 199.988281 338.621094 202.457031 C 338.378906 204.929688 338.074219 207.394531 337.710938 209.851562 C 337.347656 212.308594 336.921875 214.753906 336.4375 217.191406 C 335.953125 219.628906 335.40625 222.050781 334.804688 224.460938 C 334.199219 226.871094 333.539062 229.261719 332.816406 231.640625 C 332.097656 234.015625 331.316406 236.375 330.480469 238.710938 C 329.644531 241.050781 328.75 243.367188 327.800781 245.664062 C 326.847656 247.957031 325.84375 250.226562 324.78125 252.472656 C 323.71875 254.71875 322.601562 256.9375 321.433594 259.125 C 320.261719 261.316406 319.039062 263.476562 317.761719 265.609375 C 316.484375 267.738281 315.15625 269.835938 313.773438 271.902344 C 312.394531 273.96875 310.964844 275.996094 309.484375 277.992188 C 308.007812 279.988281 306.476562 281.945312 304.902344 283.863281 C 303.328125 285.785156 301.703125 287.664062 300.035156 289.503906 C 298.367188 291.347656 296.65625 293.144531 294.902344 294.902344 C 293.144531 296.65625 291.347656 298.367188 289.503906 300.035156 C 287.664062 301.703125 285.785156 303.328125 283.863281 304.902344 C 281.945312 306.476562 279.988281 308.007812 277.992188 309.484375 C 275.996094 310.964844 273.96875 312.394531 271.902344 313.773438 C 269.835938 315.15625 267.738281 316.484375 265.609375 317.761719 C 263.476562 319.039062 261.316406 320.261719 259.125 321.433594 C 256.9375 322.601562 254.71875 323.71875 252.472656 324.78125 C 250.226562 325.84375 247.957031 326.847656 245.664062 327.800781 C 243.367188 328.75 241.050781 329.644531 238.710938 330.480469 C 236.375 331.316406 234.015625 332.097656 231.640625 332.816406 C 229.261719 333.539062 226.871094 334.199219 224.460938 334.804688 C 222.050781 335.40625 219.628906 335.953125 217.191406 336.4375 C 214.753906 336.921875 212.308594 337.347656 209.851562 337.710938 C 207.394531 338.074219 204.929688 338.378906 202.457031 338.621094 C 199.988281 338.867188 197.511719 339.046875 195.03125 339.171875 C 192.546875 339.292969 190.066406 339.351562 187.582031 339.351562 C 185.097656 339.351562 182.617188 339.292969 180.136719 339.171875 C 177.65625 339.046875 175.179688 338.867188 172.707031 338.621094 C 170.234375 338.378906 167.769531 338.074219 165.3125 337.710938 C 162.855469 337.347656 160.410156 336.921875 157.972656 336.4375 C 155.539062 335.953125 153.113281 335.40625 150.707031 334.804688 C 148.296875 334.199219 145.902344 333.539062 143.527344 332.816406 C 141.148438 332.097656 138.792969 331.316406 136.453125 330.480469 C 134.113281 329.644531 131.796875 328.75 129.503906 327.800781 C 127.207031 326.847656 124.9375 325.84375 122.691406 324.78125 C 120.445312 323.71875 118.230469 322.601562 116.039062 321.433594 C 113.847656 320.261719 111.6875 319.039062 109.558594 317.761719 C 107.425781 316.484375 105.328125 315.15625 103.261719 313.773438 C 101.199219 312.394531 99.167969 310.964844 97.171875 309.484375 C 95.179688 308.007812 93.21875 306.476562 91.300781 304.902344 C 89.378906 303.328125 87.5 301.703125 85.660156 300.035156 C 83.820312 298.367188 82.019531 296.65625 80.265625 294.902344 C 78.507812 293.144531 76.796875 291.347656 75.128906 289.503906 C 73.460938 287.664062 71.839844 285.785156 70.261719 283.863281 C 68.6875 281.945312 67.160156 279.988281 65.679688 277.992188 C 64.199219 275.996094 62.769531 273.96875 61.390625 271.902344 C 60.011719 269.835938 58.683594 267.738281 57.40625 265.609375 C 56.128906 263.476562 54.902344 261.316406 53.734375 259.125 C 52.5625 256.9375 51.445312 254.71875 50.382812 252.472656 C 49.320312 250.226562 48.316406 247.957031 47.363281 245.664062 C 46.414062 243.367188 45.519531 241.050781 44.683594 238.710938 C 43.847656 236.375 43.070312 234.015625 42.347656 231.640625 C 41.625 229.261719 40.964844 226.871094 40.359375 224.460938 C 39.757812 222.050781 39.214844 219.628906 38.730469 217.191406 C 38.242188 214.753906 37.820312 212.308594 37.453125 209.851562 C 37.089844 207.394531 36.785156 204.929688 36.542969 202.457031 C 36.300781 199.988281 36.117188 197.511719 35.996094 195.03125 C 35.875 192.546875 35.8125 190.066406 35.8125 187.582031 C 35.8125 185.097656 35.875 182.617188 35.996094 180.136719 C 36.117188 177.65625 36.300781 175.179688 36.542969 172.707031 C 36.785156 170.234375 37.089844 167.769531 37.453125 165.3125 C 37.820312 162.855469 38.242188 160.410156 38.730469 157.972656 C 39.214844 155.539062 39.757812 153.113281 40.359375 150.707031 C 40.964844 148.296875 41.625 145.902344 42.347656 143.527344 C 43.070312 141.148438 43.847656 138.792969 44.683594 136.453125 C 45.519531 134.113281 46.414062 131.796875 47.363281 129.503906 C 48.316406 127.207031 49.320312 124.9375 50.382812 122.691406 C 51.445312 120.445312 52.5625 118.230469 53.734375 116.039062 C 54.902344 113.847656 56.128906 111.6875 57.40625 109.558594 C 58.683594 107.425781 60.011719 105.328125 61.390625 103.261719 C 62.769531 101.199219 64.199219 99.167969 65.679688 97.171875 C 67.160156 95.179688 68.6875 93.21875 70.261719 91.300781 C 71.839844 89.378906 73.460938 87.5 75.128906 85.660156 C 76.796875 83.820312 78.507812 82.019531 80.265625 80.265625 C 82.019531 78.507812 83.820312 76.796875 85.660156 75.128906 C 87.5 73.460938 89.378906 71.839844 91.300781 70.261719 C 93.21875 68.6875 95.179688 67.160156 97.171875 65.679688 C 99.167969 64.199219 101.199219 62.769531 103.261719 61.390625 C 105.328125 60.011719 107.425781 58.683594 109.558594 57.40625 C 111.6875 56.128906 113.847656 54.902344 116.039062 53.734375 C 118.230469 52.5625 120.445312 51.445312 122.691406 50.382812 C 124.9375 49.320312 127.207031 48.316406 129.503906 47.363281 C 131.796875 46.414062 134.113281 45.519531 136.453125 44.683594 C 138.792969 43.847656 141.148438 43.070312 143.527344 42.347656 C 145.902344 41.625 148.296875 40.964844 150.707031 40.359375 C 153.113281 39.757812 155.539062 39.214844 157.972656 38.730469 C 160.410156 38.242188 162.855469 37.820312 165.3125 37.453125 C 167.769531 37.089844 170.234375 36.785156 172.707031 36.542969 C 175.179688 36.300781 177.65625 36.117188 180.136719 35.996094 C 182.617188 35.875 185.097656 35.8125 187.582031 35.8125 C 190.066406 35.8125 192.546875 35.875 195.03125 35.996094 C 197.511719 36.117188 199.988281 36.300781 202.457031 36.542969 C 204.929688 36.785156 207.394531 37.089844 209.851562 37.453125 C 212.308594 37.820312 214.753906 38.242188 217.191406 38.730469 C 219.628906 39.214844 222.050781 39.757812 224.460938 40.359375 C 226.871094 40.964844 229.261719 41.625 231.640625 42.347656 C 234.015625 43.070312 236.375 43.847656 238.710938 44.683594 C 241.050781 45.519531 243.367188 46.414062 245.664062 47.363281 C 247.957031 48.316406 250.226562 49.320312 252.472656 50.382812 C 254.71875 51.445312 256.9375 52.5625 259.125 53.734375 C 261.316406 54.902344 263.476562 56.128906 265.609375 57.40625 C 267.738281 58.683594 269.835938 60.011719 271.902344 61.390625 C 273.96875 62.769531 275.996094 64.199219 277.992188 65.679688 C 279.988281 67.160156 281.945312 68.6875 283.863281 70.261719 C 285.785156 71.839844 287.664062 73.460938 289.503906 75.128906 C 291.347656 76.796875 293.144531 78.507812 294.902344 80.265625 C 296.65625 82.019531 298.367188 83.820312 300.035156 85.660156 C 301.703125 87.5 303.328125 89.378906 304.902344 91.300781 C 306.476562 93.21875 308.007812 95.179688 309.484375 97.171875 C 310.964844 99.167969 312.394531 101.199219 313.773438 103.261719 C 315.15625 105.328125 316.484375 107.425781 317.761719 109.558594 C 319.039062 111.6875 320.261719 113.847656 321.433594 116.039062 C 322.601562 118.230469 323.71875 120.445312 324.78125 122.691406 C 325.84375 124.9375 326.847656 127.207031 327.800781 129.503906 C 328.75 131.796875 329.644531 134.113281 330.480469 136.453125 C 331.316406 138.792969 332.097656 141.148438 332.816406 143.527344 C 333.539062 145.902344 334.199219 148.296875 334.804688 150.707031 C 335.40625 153.113281 335.953125 155.539062 336.4375 157.972656 C 336.921875 160.410156 337.347656 162.855469 337.710938 165.3125 C 338.074219 167.769531 338.378906 170.234375 338.621094 172.707031 C 338.867188 175.179688 339.046875 177.65625 339.171875 180.136719 C 339.292969 182.617188 339.351562 185.097656 339.351562 187.582031 Z M 339.351562 187.582031 " clip-rule="nonzero"/></clipPath><linearGradient x1="48.842114" gradientTransform="matrix(0.6105, 0, 0, 0.6105, 34.95768, 34.957669)" y1="-32.394395" x2="451.157641" gradientUnits="userSpaceOnUse" y2="532.394595" id="3ebb233e0c"><stop stop-opacity="1" stop-color="rgb(68.598938%, 1.599121%, 23.899841%)" offset="0"/><stop stop-opacity="1" stop-color="rgb(68.598938%, 1.599121%, 23.899841%)" offset="0.03125"/><stop stop-opacity="1" stop-color="rgb(68.598938%, 1.599121%, 23.899841%)" offset="0.046875"/><stop stop-opacity="1" stop-color="rgb(68.634033%, 1.647949%, 23.94104%)" offset="0.0546875"/><stop stop-opacity="1" stop-color="rgb(68.798828%, 1.878357%, 24.14093%)" offset="0.0625"/><stop stop-opacity="1" stop-color="rgb(69.058228%, 2.241516%, 24.456787%)" offset="0.0703125"/><stop stop-opacity="1" stop-color="rgb(69.317627%, 2.603149%, 24.771118%)" offset="0.078125"/><stop stop-opacity="1" stop-color="rgb(69.577026%, 2.966309%, 25.086975%)" offset="0.0859375"/><stop stop-opacity="1" stop-color="rgb(69.836426%, 3.329468%, 25.401306%)" offset="0.09375"/><stop stop-opacity="1" stop-color="rgb(70.095825%, 3.691101%, 25.717163%)" offset="0.101563"/><stop stop-opacity="1" stop-color="rgb(70.355225%, 4.05426%, 26.031494%)" offset="0.109375"/><stop stop-opacity="1" stop-color="rgb(70.614624%, 4.417419%, 26.347351%)" offset="0.117188"/><stop stop-opacity="1" stop-color="rgb(70.874023%, 4.779053%, 26.661682%)" offset="0.125"/><stop stop-opacity="1" stop-color="rgb(71.133423%, 5.142212%, 26.977539%)" offset="0.132812"/><stop stop-opacity="1" stop-color="rgb(71.392822%, 5.505371%, 27.29187%)" offset="0.140625"/><stop stop-opacity="1" stop-color="rgb(71.652222%, 5.86853%, 27.606201%)" offset="0.148438"/><stop stop-opacity="1" stop-color="rgb(71.911621%, 6.230164%, 27.922058%)" offset="0.15625"/><stop stop-opacity="1" stop-color="rgb(72.171021%, 6.593323%, 28.236389%)" offset="0.164062"/><stop stop-opacity="1" stop-color="rgb(72.43042%, 6.956482%, 28.552246%)" offset="0.171875"/><stop stop-opacity="1" stop-color="rgb(72.691345%, 7.318115%, 28.866577%)" offset="0.179688"/><stop stop-opacity="1" stop-color="rgb(72.950745%, 7.681274%, 29.182434%)" offset="0.1875"/><stop stop-opacity="1" stop-color="rgb(73.210144%, 8.044434%, 29.496765%)" offset="0.195312"/><stop stop-opacity="1" stop-color="rgb(73.469543%, 8.406067%, 29.812622%)" offset="0.203125"/><stop stop-opacity="1" stop-color="rgb(73.728943%, 8.769226%, 30.126953%)" offset="0.210938"/><stop stop-opacity="1" stop-color="rgb(73.988342%, 9.132385%, 30.44281%)" offset="0.21875"/><stop stop-opacity="1" stop-color="rgb(74.247742%, 9.494019%, 30.757141%)" offset="0.226562"/><stop stop-opacity="1" stop-color="rgb(74.507141%, 9.857178%, 31.071472%)" offset="0.234375"/><stop stop-opacity="1" stop-color="rgb(74.766541%, 10.220337%, 31.387329%)" offset="0.242188"/><stop stop-opacity="1" stop-color="rgb(75.02594%, 10.583496%, 31.70166%)" offset="0.25"/><stop stop-opacity="1" stop-color="rgb(75.285339%, 10.945129%, 32.017517%)" offset="0.257812"/><stop stop-opacity="1" stop-color="rgb(75.544739%, 11.308289%, 32.331848%)" offset="0.265625"/><stop stop-opacity="1" stop-color="rgb(75.804138%, 11.671448%, 32.647705%)" offset="0.273438"/><stop stop-opacity="1" stop-color="rgb(76.063538%, 12.033081%, 32.962036%)" offset="0.28125"/><stop stop-opacity="1" stop-color="rgb(76.322937%, 12.39624%, 33.277893%)" offset="0.289062"/><stop stop-opacity="1" stop-color="rgb(76.582336%, 12.759399%, 33.592224%)" offset="0.296875"/><stop stop-opacity="1" stop-color="rgb(76.841736%, 13.121033%, 33.908081%)" offset="0.304688"/><stop stop-opacity="1" stop-color="rgb(77.101135%, 13.484192%, 34.222412%)" offset="0.3125"/><stop stop-opacity="1" stop-color="rgb(77.360535%, 13.847351%, 34.538269%)" offset="0.320313"/><stop stop-opacity="1" stop-color="rgb(77.619934%, 14.208984%, 34.8526%)" offset="0.328125"/><stop stop-opacity="1" stop-color="rgb(77.879333%, 14.572144%, 35.166931%)" offset="0.335938"/><stop stop-opacity="1" stop-color="rgb(78.138733%, 14.935303%, 35.482788%)" offset="0.34375"/><stop stop-opacity="1" stop-color="rgb(78.398132%, 15.296936%, 35.797119%)" offset="0.351562"/><stop stop-opacity="1" stop-color="rgb(78.657532%, 15.660095%, 36.112976%)" offset="0.359375"/><stop stop-opacity="1" stop-color="rgb(78.916931%, 16.023254%, 36.427307%)" offset="0.367188"/><stop stop-opacity="1" stop-color="rgb(79.176331%, 16.386414%, 36.743164%)" offset="0.375"/><stop stop-opacity="1" stop-color="rgb(79.43573%, 16.748047%, 37.057495%)" offset="0.382813"/><stop stop-opacity="1" stop-color="rgb(79.695129%, 17.111206%, 37.373352%)" offset="0.390625"/><stop stop-opacity="1" stop-color="rgb(79.954529%, 17.474365%, 37.687683%)" offset="0.398438"/><stop stop-opacity="1" stop-color="rgb(80.213928%, 17.835999%, 38.00354%)" offset="0.40625"/><stop stop-opacity="1" stop-color="rgb(80.473328%, 18.199158%, 38.317871%)" offset="0.414062"/><stop stop-opacity="1" stop-color="rgb(80.732727%, 18.562317%, 38.633728%)" offset="0.416"/><stop stop-opacity="1" stop-color="rgb(80.862427%, 18.743896%, 38.790894%)" offset="0.421875"/><stop stop-opacity="1" stop-color="rgb(80.992126%, 18.92395%, 38.948059%)" offset="0.429688"/><stop stop-opacity="1" stop-color="rgb(81.251526%, 19.287109%, 39.26239%)" offset="0.4375"/><stop stop-opacity="1" stop-color="rgb(81.510925%, 19.650269%, 39.578247%)" offset="0.445312"/><stop stop-opacity="1" stop-color="rgb(81.770325%, 20.011902%, 39.892578%)" offset="0.453125"/><stop stop-opacity="1" stop-color="rgb(82.029724%, 20.375061%, 40.208435%)" offset="0.460938"/><stop stop-opacity="1" stop-color="rgb(82.289124%, 20.73822%, 40.522766%)" offset="0.46875"/><stop stop-opacity="1" stop-color="rgb(82.550049%, 21.101379%, 40.838623%)" offset="0.476562"/><stop stop-opacity="1" stop-color="rgb(82.809448%, 21.463013%, 41.152954%)" offset="0.484375"/><stop stop-opacity="1" stop-color="rgb(83.068848%, 21.826172%, 41.468811%)" offset="0.492188"/><stop stop-opacity="1" stop-color="rgb(83.328247%, 22.189331%, 41.783142%)" offset="0.5"/><stop stop-opacity="1" stop-color="rgb(83.587646%, 22.550964%, 42.098999%)" offset="0.507812"/><stop stop-opacity="1" stop-color="rgb(83.847046%, 22.914124%, 42.41333%)" offset="0.515625"/><stop stop-opacity="1" stop-color="rgb(84.106445%, 23.277283%, 42.729187%)" offset="0.523438"/><stop stop-opacity="1" stop-color="rgb(84.365845%, 23.638916%, 43.043518%)" offset="0.53125"/><stop stop-opacity="1" stop-color="rgb(84.625244%, 24.002075%, 43.357849%)" offset="0.539063"/><stop stop-opacity="1" stop-color="rgb(84.884644%, 24.365234%, 43.673706%)" offset="0.546875"/><stop stop-opacity="1" stop-color="rgb(85.144043%, 24.726868%, 43.988037%)" offset="0.554688"/><stop stop-opacity="1" stop-color="rgb(85.403442%, 25.090027%, 44.303894%)" offset="0.5625"/><stop stop-opacity="1" stop-color="rgb(85.662842%, 25.453186%, 44.618225%)" offset="0.570312"/><stop stop-opacity="1" stop-color="rgb(85.922241%, 25.816345%, 44.934082%)" offset="0.578125"/><stop stop-opacity="1" stop-color="rgb(86.181641%, 26.177979%, 45.248413%)" offset="0.584"/><stop stop-opacity="1" stop-color="rgb(86.31134%, 26.359558%, 45.407104%)" offset="0.585937"/><stop stop-opacity="1" stop-color="rgb(86.44104%, 26.541138%, 45.56427%)" offset="0.59375"/><stop stop-opacity="1" stop-color="rgb(86.700439%, 26.904297%, 45.878601%)" offset="0.601562"/><stop stop-opacity="1" stop-color="rgb(86.959839%, 27.26593%, 46.194458%)" offset="0.609375"/><stop stop-opacity="1" stop-color="rgb(87.219238%, 27.629089%, 46.508789%)" offset="0.617188"/><stop stop-opacity="1" stop-color="rgb(87.478638%, 27.992249%, 46.824646%)" offset="0.625"/><stop stop-opacity="1" stop-color="rgb(87.738037%, 28.353882%, 47.138977%)" offset="0.632812"/><stop stop-opacity="1" stop-color="rgb(87.997437%, 28.717041%, 47.453308%)" offset="0.640625"/><stop stop-opacity="1" stop-color="rgb(88.256836%, 29.0802%, 47.769165%)" offset="0.648438"/><stop stop-opacity="1" stop-color="rgb(88.516235%, 29.441833%, 48.083496%)" offset="0.65625"/><stop stop-opacity="1" stop-color="rgb(88.775635%, 29.804993%, 48.399353%)" offset="0.664063"/><stop stop-opacity="1" stop-color="rgb(89.035034%, 30.168152%, 48.713684%)" offset="0.671875"/><stop stop-opacity="1" stop-color="rgb(89.294434%, 30.529785%, 49.029541%)" offset="0.679688"/><stop stop-opacity="1" stop-color="rgb(89.553833%, 30.892944%, 49.343872%)" offset="0.6875"/><stop stop-opacity="1" stop-color="rgb(89.813232%, 31.256104%, 49.659729%)" offset="0.695312"/><stop stop-opacity="1" stop-color="rgb(90.072632%, 31.619263%, 49.97406%)" offset="0.703125"/><stop stop-opacity="1" stop-color="rgb(90.332031%, 31.980896%, 50.289917%)" offset="0.710937"/><stop stop-opacity="1" stop-color="rgb(90.591431%, 32.344055%, 50.604248%)" offset="0.71875"/><stop stop-opacity="1" stop-color="rgb(90.85083%, 32.707214%, 50.920105%)" offset="0.726562"/><stop stop-opacity="1" stop-color="rgb(91.110229%, 33.068848%, 51.234436%)" offset="0.734375"/><stop stop-opacity="1" stop-color="rgb(91.369629%, 33.432007%, 51.548767%)" offset="0.742188"/><stop stop-opacity="1" stop-color="rgb(91.629028%, 33.795166%, 51.864624%)" offset="0.75"/><stop stop-opacity="1" stop-color="rgb(91.888428%, 34.156799%, 52.178955%)" offset="0.757812"/><stop stop-opacity="1" stop-color="rgb(92.149353%, 34.519958%, 52.494812%)" offset="0.765625"/><stop stop-opacity="1" stop-color="rgb(92.408752%, 34.883118%, 52.809143%)" offset="0.773438"/><stop stop-opacity="1" stop-color="rgb(92.668152%, 35.244751%, 53.125%)" offset="0.78125"/><stop stop-opacity="1" stop-color="rgb(92.927551%, 35.60791%, 53.439331%)" offset="0.789063"/><stop stop-opacity="1" stop-color="rgb(93.186951%, 35.971069%, 53.755188%)" offset="0.796875"/><stop stop-opacity="1" stop-color="rgb(93.44635%, 36.334229%, 54.069519%)" offset="0.804688"/><stop stop-opacity="1" stop-color="rgb(93.70575%, 36.695862%, 54.385376%)" offset="0.8125"/><stop stop-opacity="1" stop-color="rgb(93.965149%, 37.059021%, 54.699707%)" offset="0.820312"/><stop stop-opacity="1" stop-color="rgb(94.224548%, 37.42218%, 55.015564%)" offset="0.828125"/><stop stop-opacity="1" stop-color="rgb(94.483948%, 37.783813%, 55.329895%)" offset="0.835937"/><stop stop-opacity="1" stop-color="rgb(94.743347%, 38.146973%, 55.644226%)" offset="0.84375"/><stop stop-opacity="1" stop-color="rgb(95.002747%, 38.510132%, 55.960083%)" offset="0.851562"/><stop stop-opacity="1" stop-color="rgb(95.262146%, 38.871765%, 56.274414%)" offset="0.859375"/><stop stop-opacity="1" stop-color="rgb(95.521545%, 39.234924%, 56.590271%)" offset="0.867188"/><stop stop-opacity="1" stop-color="rgb(95.780945%, 39.598083%, 56.904602%)" offset="0.875"/><stop stop-opacity="1" stop-color="rgb(96.040344%, 39.959717%, 57.220459%)" offset="0.882812"/><stop stop-opacity="1" stop-color="rgb(96.299744%, 40.322876%, 57.53479%)" offset="0.890625"/><stop stop-opacity="1" stop-color="rgb(96.559143%, 40.686035%, 57.850647%)" offset="0.898438"/><stop stop-opacity="1" stop-color="rgb(96.818542%, 41.049194%, 58.164978%)" offset="0.90625"/><stop stop-opacity="1" stop-color="rgb(97.077942%, 41.410828%, 58.480835%)" offset="0.914063"/><stop stop-opacity="1" stop-color="rgb(97.337341%, 41.773987%, 58.795166%)" offset="0.921875"/><stop stop-opacity="1" stop-color="rgb(97.596741%, 42.137146%, 59.111023%)" offset="0.929688"/><stop stop-opacity="1" stop-color="rgb(97.85614%, 42.498779%, 59.425354%)" offset="0.9375"/><stop stop-opacity="1" stop-color="rgb(97.991943%, 42.689514%, 59.590149%)" offset="1"/></linearGradient><clipPath id="007c8cddb8"><path d="M 34.957031 34.957031 L 340.207031 34.957031 L 340.207031 340.207031 L 34.957031 340.207031 Z M 34.957031 34.957031 " clip-rule="nonzero"/></clipPath><clipPath id="8b1d2ce18b"><path d="M 100 88 L 278.175781 88 L 278.175781 290.753906 L 100 290.753906 Z M 100 88 " clip-rule="nonzero"/></clipPath></defs><g clip-path="url(#769a5719a4)"><g clip-path="url(#6039d3cfa6)"><path fill="url(#3ebb233e0c)" d="M 35.8125 35.8125 L 35.8125 339.351562 L 339.351562 339.351562 L 339.351562 35.8125 Z M 35.8125 35.8125 " fill-rule="nonzero"/></g></g><g clip-path="url(#007c8cddb8)"><path fill="#66062b" d="M 187.582031 340.207031 C 103.394531 340.207031 34.957031 271.769531 34.957031 187.582031 C 34.957031 103.394531 103.394531 34.957031 187.582031 34.957031 C 271.710938 34.957031 340.207031 103.394531 340.207031 187.582031 C 340.207031 271.769531 271.710938 340.207031 187.582031 340.207031 Z M 187.582031 36.667969 C 104.371094 36.667969 36.667969 104.371094 36.667969 187.582031 C 36.667969 270.792969 104.371094 338.5 187.582031 338.5 C 270.792969 338.5 338.5 270.792969 338.5 187.582031 C 338.5 104.371094 270.792969 36.667969 187.582031 36.667969 Z M 187.582031 36.667969 " fill-opacity="1" fill-rule="nonzero"/></g><g clip-path="url(#8b1d2ce18b)"><path fill="#ffffff" d="M 264.746094 100.644531 C 256.757812 93.015625 246.054688 88.761719 235.023438 88.800781 C 223.628906 88.84375 212.921875 93.3125 204.863281 101.386719 L 189.496094 116.785156 L 174.511719 101.769531 C 157.820312 85.046875 130.640625 84.523438 113.789062 101.085938 C 96.765625 117.8125 96.664062 145.296875 113.484375 162.144531 L 194.863281 243.691406 C 204.152344 252.996094 204.585938 268.152344 195.480469 277.632812 C 186.160156 287.335938 170.691406 287.449219 161.230469 277.96875 L 141.074219 257.769531 C 140.222656 256.917969 140.136719 255.570312 140.867188 254.609375 C 143.84375 250.6875 145.492188 245.703125 145.121094 240.332031 C 144.394531 229.722656 135.742188 221.195312 125.148438 220.640625 C 112.875 220.003906 102.703125 229.902344 102.867188 242.097656 C 103.015625 253.390625 112.203125 262.714844 123.46875 262.996094 C 127.105469 263.089844 130.539062 262.257812 133.5625 260.722656 C 134.480469 260.253906 135.59375 260.453125 136.316406 261.179688 L 157.144531 282.050781 C 162.945312 287.863281 170.5625 290.765625 178.179688 290.765625 C 185.796875 290.765625 193.417969 287.859375 199.214844 282.050781 C 210.816406 270.429688 210.816406 251.515625 199.214844 239.894531 L 117.5625 158.0625 C 103.09375 143.5625 103.09375 119.972656 117.5625 105.472656 C 132.035156 90.972656 155.582031 90.972656 170.046875 105.472656 L 187.382812 122.839844 C 187.964844 123.421875 188.730469 123.699219 189.496094 123.679688 C 190.257812 123.699219 191.027344 123.421875 191.609375 122.839844 L 208.597656 105.820312 C 215.640625 98.757812 225.152344 94.601562 235.113281 94.582031 C 245.054688 94.5625 254.40625 98.429688 261.433594 105.472656 C 268.453125 112.511719 272.316406 121.867188 272.300781 131.824219 C 272.285156 141.8125 268.132812 151.351562 261.085938 158.414062 L 255.597656 163.917969 C 255.144531 164.367188 254.53125 164.625 253.890625 164.625 L 237.523438 164.625 C 236.617188 164.625 235.78125 164.109375 235.375 163.296875 L 227.472656 147.453125 C 226.585938 145.675781 224.0625 145.675781 223.175781 147.453125 L 209.589844 174.65625 C 208.707031 176.433594 206.179688 176.433594 205.296875 174.65625 L 200.65625 165.355469 C 199.773438 163.578125 197.246094 163.578125 196.363281 165.355469 L 191.722656 174.652344 C 190.839844 176.429688 188.3125 176.429688 187.429688 174.652344 L 173.851562 147.441406 C 172.96875 145.667969 170.441406 145.667969 169.558594 147.441406 L 161.652344 163.285156 C 161.246094 164.097656 160.414062 164.613281 159.507812 164.613281 L 145.019531 164.613281 C 143.441406 164.613281 142.066406 165.832031 142.019531 167.414062 C 141.972656 169.050781 143.277344 170.390625 144.902344 170.390625 L 163.070312 170.390625 C 163.976562 170.390625 164.8125 169.875 165.21875 169.0625 L 169.558594 160.355469 C 170.441406 158.578125 172.96875 158.578125 173.851562 160.355469 L 187.429688 187.566406 C 188.3125 189.339844 190.839844 189.339844 191.722656 187.566406 L 196.363281 178.265625 C 197.246094 176.492188 199.773438 176.492188 200.65625 178.265625 L 205.296875 187.570312 C 206.179688 189.347656 208.707031 189.347656 209.589844 187.570312 L 223.167969 160.359375 C 224.050781 158.589844 226.578125 158.582031 227.460938 160.359375 L 231.808594 169.066406 C 232.214844 169.878906 233.046875 170.394531 233.957031 170.394531 L 256.074219 170.394531 C 256.074219 170.394531 256.074219 170.394531 256.078125 170.394531 L 256.082031 170.394531 C 256.261719 170.394531 256.433594 170.375 256.601562 170.347656 C 256.609375 170.347656 256.625 170.339844 256.632812 170.339844 C 256.800781 170.308594 256.96875 170.257812 257.128906 170.195312 C 257.144531 170.191406 257.15625 170.1875 257.171875 170.183594 C 257.332031 170.113281 257.484375 170.03125 257.628906 169.941406 C 257.644531 169.933594 257.65625 169.925781 257.671875 169.917969 C 257.824219 169.8125 257.96875 169.695312 258.105469 169.566406 C 258.109375 169.5625 258.109375 169.5625 258.113281 169.554688 L 265.085938 162.570312 C 273.339844 154.300781 278.15625 143.101562 278.066406 131.40625 C 277.96875 119.710938 273.238281 108.753906 264.746094 100.644531 Z M 108.628906 241.808594 C 108.628906 233.304688 115.535156 226.386719 124.019531 226.386719 C 132.5 226.386719 139.40625 233.308594 139.40625 241.808594 C 139.40625 250.3125 132.5 257.226562 124.019531 257.226562 C 115.535156 257.226562 108.628906 250.3125 108.628906 241.808594 Z M 108.628906 241.808594 " fill-opacity="1" fill-rule="nonzero"/></g></svg>