<svg xmlns="http://www.w3.org/2000/svg" xmlns:xlink="http://www.w3.org/1999/xlink" width="1920" zoomAndPan="magnify" viewBox="0 0 1440 809.999993" height="1080" preserveAspectRatio="xMidYMid meet" version="1.0"><defs><clipPath id="710e0fc7be"><path d="M 0 72 L 197 72 L 197 524 L 0 524 Z M 0 72 " clip-rule="nonzero"/></clipPath><clipPath id="19253ae62e"><path d="M -272.910156 170.914062 L 51.652344 0.132812 L 275.519531 425.578125 L -49.042969 596.359375 Z M -272.910156 170.914062 " clip-rule="nonzero"/></clipPath><clipPath id="80f2f15faa"><path d="M -272.910156 170.914062 L 51.652344 0.132812 L 275.519531 425.578125 L -49.042969 596.359375 Z M -272.910156 170.914062 " clip-rule="nonzero"/></clipPath><clipPath id="7558a74ea5"><path d="M -272.910156 170.914062 L 51.652344 0.132812 L 275.519531 425.578125 L -49.042969 596.359375 Z M -272.910156 170.914062 " clip-rule="nonzero"/></clipPath></defs><g clip-path="url(#710e0fc7be)"><g clip-path="url(#19253ae62e)"><g clip-path="url(#80f2f15faa)"><g clip-path="url(#7558a74ea5)"><path fill="#ffffff" d="M 142.128906 486.746094 C 101.65625 515.738281 73.042969 517.96875 51.089844 523.109375 C 36.445312 526.324219 8.109375 517.507812 -6.773438 515.398438 C -41.25 510.132812 -58.789062 466.457031 -81.164062 439.753906 C -100.027344 417.296875 -120.753906 396.777344 -143.335938 378.203125 C -164.761719 360.617188 -177.839844 341.847656 -192.292969 318.03125 C -215.808594 279.425781 -210.257812 230.332031 -203.089844 185.519531 C -200.0625 166.929688 -196.660156 147.828125 -184.796875 133.25 C -174.410156 120.730469 -152.21875 108.730469 -137.527344 101.960938 C -81.144531 75.820312 -33.519531 67.117188 27.785156 75.898438 C 43.683594 78.113281 59.386719 82.996094 72.632812 91.738281 C 82.921875 98.507812 91.613281 107.722656 99.417969 117.082031 C 136.367188 161.125 159.570312 214.96875 177.722656 269.542969 C 185.308594 292.484375 192.277344 316.074219 193.421875 340.160156 C 195.261719 385.042969 205.289062 409.585938 177.105469 455.835938 Z M 142.128906 486.746094 " fill-opacity="1" fill-rule="nonzero"/></g></g></g></g></svg>