<svg xmlns="http://www.w3.org/2000/svg" xmlns:xlink="http://www.w3.org/1999/xlink" width="1920" zoomAndPan="magnify" viewBox="0 0 1440 809.999993" height="1080" preserveAspectRatio="xMidYMid meet" version="1.0"><path fill="#ffffff" d="M 1318.484375 225.652344 C 1335.875 206.449219 1354.027344 187.382812 1376.320312 174.164062 C 1387.878906 167.308594 1401.007812 162.03125 1414.414062 163.054688 C 1448.164062 165.636719 1465.667969 203.621094 1476.050781 235.835938 C 1507.1875 332.503906 1537.144531 429.898438 1554.679688 529.9375 C 1558.808594 553.535156 1560.777344 581.652344 1542.84375 597.523438 C 1531.496094 607.566406 1515.324219 609.511719 1500.238281 611 C 1445.46875 616.398438 1390.707031 621.789062 1335.9375 627.1875 C 1291.589844 631.554688 1247.101562 635.980469 1202.496094 635.992188 C 1161.636719 636 1087.015625 648.082031 1078.414062 590.863281 C 1067.449219 517.828125 1143.863281 451.960938 1181.191406 398.308594 C 1200.960938 369.882812 1221.589844 342.054688 1243.042969 314.871094 C 1267.167969 284.285156 1292.339844 254.515625 1318.484375 225.652344 Z M 1318.484375 225.652344 " fill-opacity="1" fill-rule="nonzero"/></svg>